<svg width="25" height="25" viewBox="0 0 25 25" fill="none" xmlns="http://www.w3.org/2000/svg">
<path d="M12.7936 21.6764C12.4921 21.6764 12.2014 21.57 11.9749 21.3768C11.1194 20.6481 10.2947 19.9633 9.56697 19.3593L9.56325 19.3561C7.42981 17.5851 5.5875 16.0556 4.30565 14.5489C2.87274 12.8646 2.20532 11.2676 2.20532 9.52303C2.20532 7.82799 2.80198 6.26422 3.88526 5.11956C4.98147 3.96137 6.48563 3.32349 8.12114 3.32349C9.34353 3.32349 10.463 3.69995 11.4484 4.44233C11.9457 4.81707 12.3964 5.27569 12.7936 5.81064C13.1908 5.27569 13.6414 4.81707 14.1389 4.44233C15.1243 3.69995 16.2437 3.32349 17.4661 3.32349C19.1015 3.32349 20.6058 3.96137 21.702 5.11956C22.7853 6.26422 23.3818 7.82799 23.3818 9.52303C23.3818 11.2676 22.7145 12.8646 21.2816 14.5488C19.9998 16.0556 18.1576 17.5849 16.0245 19.3558C15.2955 19.9608 14.4695 20.6467 13.612 21.3771C13.3857 21.57 13.0949 21.6764 12.7936 21.6764Z" stroke='#9195A9' stroke-width='1.5px'/>
</svg>
